<svg fill="#F5F5F5" height="512pt" viewBox="0 0 512 512" width="512pt" xmlns="http://www.w3.org/2000/svg"><path d="m25.601562 238.933594h8.53125v59.734375c.078126 10.050781 6.007813 19.132812 15.179688 23.242187 0 .28125.054688.566406.09375.855469l16.597656 99.574219c2.027344 12.359375 12.726563 21.425781 25.25 21.394531h36.746094v17.066406h-34.132812c-14.140626 0-25.601563 11.460938-25.601563 25.597657 0 14.140624 11.460937 25.601562 25.601563 25.601562h119.464843c14.140625 0 25.601563-11.460938 25.601563-25.601562 0-14.136719-11.460938-25.597657-25.601563-25.597657h-34.132812v-17.066406h36.746093c12.523438.03125 23.222657-9.035156 25.25-21.394531l16.597657-99.59375c0-.269532.050781-.554688.09375-.851563 9.167969-4.109375 15.097656-13.183593 15.179687-23.226562v-59.734375h8.535156c14.136719 0 25.597657-11.460938 25.597657-25.601563 0-14.136719-11.460938-25.597656-25.597657-25.597656h-34.136718v-34.132813c-.027344-28.265624-22.933594-51.171874-51.199219-51.203124h-17.066406v-17.304688c6.917969-.554688 13.308593-3.921875 17.675781-9.3125 4.371094-5.390625 6.34375-12.339844 5.457031-19.222656l-4.265625-34.132813c-1.601562-12.8125-12.492187-22.425781-25.402344-22.425781h-38.128906c-12.910156 0-23.800781 9.613281-25.402344 22.425781l-4.265624 34.132813c-.886719 6.882812 1.085937 13.832031 5.457031 19.222656 4.371093 5.390625 10.757812 8.757812 17.675781 9.3125v17.304688h-17.066406c-28.265625.03125-51.171875 22.9375-51.199219 51.203124v34.132813h-34.132813c-14.140624 0-25.601562 11.460937-25.601562 25.597656 0 14.140625 11.460938 25.601563 25.601562 25.601563zm34.132813 0c2.015625-.023438 4.019531-.28125 5.972656-.777344 4.824219 5.875 12.023438 9.289062 19.625 9.308594h34.132813v25.601562h-27.96875c-17.777344-.023437-33.695313 11.003906-39.910156 27.65625-.21875-.664062-.347657-1.355468-.386719-2.054687v-59.734375zm110.933594 34.132812h-34.132813v-17.066406h34.132813zm51.199219 213.332032c0 4.714843-3.820313 8.535156-8.535157 8.535156h-119.464843c-4.714844 0-8.535157-3.820313-8.535157-8.535156 0-4.710938 3.820313-8.53125 8.535157-8.53125h119.464843c4.714844 0 8.535157 3.820312 8.535157 8.53125zm-59.734376-25.597657h-17.066406v-17.066406h17.066406zm78.824219-140.859375-16.597656 99.601563c-.6875 4.109375-4.246094 7.121093-8.414063 7.125h-124.691406c-4.167968-.003907-7.726562-3.019531-8.414062-7.136719l-16.59375-99.589844c-1.238282-7.421875.851562-15.015625 5.714844-20.753906 4.867187-5.742188 12.007812-9.054688 19.535156-9.054688h124.210937c7.523438 0 14.667969 3.3125 19.53125 9.054688 4.863281 5.738281 6.953125 13.332031 5.71875 20.753906zm15.042969-21.273437c-.035156.699219-.167969 1.390625-.382812 2.054687-6.21875-16.652344-22.136719-27.679687-39.910157-27.65625h-27.972656v-25.601562h34.132813c7.601562-.019532 14.800781-3.433594 19.625-9.308594 1.953124.496094 3.960937.753906 5.972656.777344h8.535156zm25.601562-93.867188c4.710938 0 8.53125 3.820313 8.53125 8.53125 0 4.714844-3.820312 8.535157-8.53125 8.535157h-34.136718c-4.710938 0-8.53125-3.820313-8.53125-8.535157 0-4.710937 3.820312-8.53125 8.53125-8.53125zm-159.804687-146.125 4.265625-34.132812c.535156-4.273438 4.167969-7.480469 8.472656-7.476563h38.128906c4.304688-.003906 7.9375 3.203125 8.472657 7.476563l4.265625 34.132812c.304687 2.429688-.449219 4.871094-2.070313 6.707031-1.621093 1.835938-3.953125 2.886719-6.402343 2.882813h-46.660157c-2.449219.003906-4.78125-1.046875-6.402343-2.882813-1.621094-1.835937-2.375-4.277343-2.070313-6.707031zm23.269531 26.65625h17.066406v17.066407h-17.066406zm-68.265625 68.269531c0-18.851562 15.28125-34.136718 34.132813-34.136718h85.332031c18.851563 0 34.132813 15.285156 34.132813 34.136718v40.789063c-9.921876 8.734375-11.414063 23.65625-3.410157 34.183594-1.457031 1.164062-3.257812 1.804687-5.121093 1.824219h-136.535157c-1.859375-.019532-3.664062-.660157-5.117187-1.824219 8-10.527344 6.511718-25.449219-3.414063-34.183594zm-51.199219 51.199219h34.132813c4.710937 0 8.53125 3.820313 8.53125 8.53125 0 4.714844-3.820313 8.535157-8.53125 8.535157h-34.132813c-4.714843 0-8.535156-3.820313-8.535156-8.535157 0-4.710937 3.820313-8.53125 8.535156-8.53125zm0 0"/><path d="m460.800781 315.734375h-85.335937c-9.425782 0-17.066406 7.640625-17.066406 17.066406v17.066407c0 9.425781 7.640624 17.066406 17.066406 17.066406h85.335937c9.425781 0 17.066407-7.640625 17.066407-17.066406v-17.066407c0-9.425781-7.640626-17.066406-17.066407-17.066406zm-85.335937 34.132813v-17.066407h85.335937v17.066407zm0 0"/><path d="m460.800781 384h-85.335937c-9.425782 0-17.066406 7.640625-17.066406 17.066406v17.066406c0 9.425782 7.640624 17.066407 17.066406 17.066407h85.335937c9.425781 0 17.066407-7.640625 17.066407-17.066407v-17.066406c0-9.425781-7.640626-17.066406-17.066407-17.066406zm-85.335937 34.132812v-17.066406h85.335937v17.066406zm0 0"/><path d="m256 42.667969h27.144531l2.558594 12.796875-5.972656 1.625c-5.941407 1.554687-10.859375 5.710937-13.390625 11.308594-2.53125 5.59375-2.402344 12.035156.351562 17.523437l29.433594 59.5625c2.71875 5.511719 7.765625 9.507813 13.75 10.890625 5.988281 1.386719 12.277344.007812 17.140625-3.746094l6.269531-4.875 4.121094 6.1875-19.179688 19.191406c-2.21875 2.140626-3.109374 5.316407-2.328124 8.296876.78125 2.984374 3.109374 5.316406 6.09375 6.097656 2.984374.78125 6.15625-.109375 8.300781-2.328125l24.128906-24.140625c2.875-2.875 3.320313-7.378906 1.066406-10.761719l-9.128906-13.679687c9.113281-10.234376 12.984375-24.109376 10.488281-37.585938l42.835938-47.832031h61.117187v230.402343h-17.066406v-93.867187c0-14.140625-11.460937-25.601563-25.601563-25.601563h-25.597656c-14.140625 0-25.601562 11.460938-25.601562 25.601563 0 4.710937 3.820312 8.53125 8.53125 8.53125 4.714844 0 8.535156-3.820313 8.535156-8.53125 0-4.714844 3.820312-8.535156 8.535156-8.535156h25.597656c4.714844 0 8.535157 3.820312 8.535157 8.535156v93.867187h-26.402344c3.140625-4.261718 5.433594-9.089843 6.75-14.21875l8.214844-32.851562c1.273437-5.097656.125-10.5-3.109375-14.640625s-8.199219-6.558594-13.453125-6.558594h-63.46875c-5.257813.003907-10.21875 2.421875-13.453125 6.566407-3.230469 4.140624-4.378906 9.542968-3.101563 14.640624l8.207031 32.84375c1.675782 6.734376 5.027344 12.9375 9.738282 18.03125-7.628906 4.613282-12.300782 12.871094-12.324219 21.785157v179.199219c0 14.140624 11.460937 25.601562 25.601563 25.601562h136.53125c14.140624 0 25.601562-11.460938 25.601562-25.601562v-179.199219c-.011719-3.652344-.8125-7.257813-2.347656-10.570313 1.5-1.566406 2.339844-3.648437 2.347656-5.8125v-265.214844c0-14.140624-11.460938-25.601562-25.601562-25.601562h-98.132813c-7.257813.0234375-14.164063 3.125-19.003906 8.535156l-42.375 47.171875c-7.625-3.703125-16.152344-5.140625-24.566407-4.140625l-3.824218-19.140625c-.8125-3.972656-4.308594-6.828125-8.363282-6.824219h-34.132812c-4.710938 0-8.535156 3.820313-8.535156 8.53125 0 4.714844 3.824218 8.535157 8.535156 8.535157zm221.867188 8.53125h8.53125c2.914062-.027344 5.796874-.550781 8.535156-1.542969v232.625h-2.859375c-1.859375-.4375-3.761719-.667969-5.675781-.679688h-8.53125zm-142.667969 179.199219h63.476562l-8.207031 32.847656c-2.695312 10.796875-12.40625 18.371094-23.535156 18.355468-11.125.007813-20.824219-7.5625-23.519532-18.355468zm159.734375 256c0 4.714843-3.820313 8.535156-8.535156 8.535156h-136.53125c-4.714844 0-8.535157-3.820313-8.535157-8.535156v-179.199219c0-4.710938 3.820313-8.53125 8.535157-8.53125h116.121093c1.058594.449219 2.195313.679687 3.34375.679687h20.40625c3.148438 1.339844 5.195313 4.429688 5.195313 7.851563zm-8.535156-469.332032c4.714843 0 8.535156 3.820313 8.535156 8.535156.003906 2.296876-.941406 4.496094-2.613282 6.074219-1.554687 1.59375-3.695312 2.480469-5.921874 2.457031h-74.015626c1.976563-5.519531 1.960938-11.558593-.042968-17.066406zm-104.453126 2.832032c1.609376-1.792969 3.90625-2.824219 6.320313-2.832032 3.355469.015625 6.390625 1.996094 7.753906 5.058594 1.367188 3.066406.808594 6.644531-1.421875 9.148438l-44.652344 49.878906-2.5625-5.230469c-.863281-1.730469-1.832031-3.402344-2.902343-5.011719-.355469-.527344-.765625-1.011718-1.140625-1.535156-.753906-1.03125-1.511719-2.054688-2.339844-3.011719-.117188-.136719-.222656-.296875-.339844-.433593zm-74.429687 48.367187c5.824219.003906 11.5 1.847656 16.214844 5.265625 3.566406 2.566406 6.4375 5.984375 8.351562 9.941406l5.742188 11.640625c.660156 1.28125 1.199219 2.621094 1.613281 4 2.308594 7.59375 1.199219 15.8125-3.035156 22.519531l-5.011719-7.507812c-2.648437-3.828125-7.875-4.828125-11.75-2.246094-3.871094 2.582032-4.960937 7.792969-2.449219 11.710938l6.640625 9.964844-7.21875 5.605468c-.804687.628906-1.851562.855469-2.84375.617188-1.003906-.226563-1.855469-.894532-2.3125-1.820313l-29.5-59.636719c-.449219-.878906-.480469-1.914062-.074219-2.816406.433594-.953125 1.277344-1.65625 2.292969-1.902344l4.882813-1.324218 1.246094 6.195312c.796874 3.988282 4.296874 6.859375 8.363281 6.859375.570312.003907 1.144531-.050781 1.707031-.167969 2.214844-.453124 4.164062-1.769531 5.414062-3.65625 1.246094-1.890624 1.695313-4.195312 1.242188-6.414062l-1.324219-6.621094c.640625-.007812 1.203125-.207031 1.808594-.207031zm0 0"/></svg>