<svg fill="#F5F5F5" height="512pt" viewBox="0 0 512.0752 512" width="512pt" xmlns="http://www.w3.org/2000/svg"><path d="m157.589844 276.109375c2.355468 3.890625 4.71875 7.78125 6.886718 11.835937 6.207032 10.984376 10.261719 23.050782 11.945313 35.554688 1.359375 15.042969 3.890625 29.957031 7.570313 44.605469 2.875 10.734375 8.898437 33.066406 28.867187 33.066406 6.417969 0 23.476563 0 34.355469-78.078125 1.765625-12.476562 6.117187-14.253906 8.824218-14.695312 2.703126.441406 7.054688 2.21875 8.820313 14.675781 10.882813 78.097656 27.941406 78.097656 34.355469 78.097656 19.96875 0 25.992187-22.332031 28.871094-32.996094 3.6875-14.675781 6.222656-29.613281 7.585937-44.683593 1.683594-12.5 5.738281-24.566407 11.945313-35.546876 2.160156-4.054687 4.523437-7.945312 6.878906-11.835937 4.78125-7.4375 8.910156-15.269531 12.339844-23.417969 11.773437-30.027344 14.863281-71.210937-11.792969-96.742187-25.320313-24.320313-69.839844-25.667969-98.988281-4.214844-29.148438-21.453125-73.675782-20.113281-98.988282 4.207031-26.664062 25.539063-23.574218 66.722656-11.800781 96.757813 3.425781 8.144531 7.550781 15.976562 12.324219 23.410156zm11.261718-107.835937c20.574219-19.738282 59.382813-19.355469 81.433594.773437.085938.078125.195313.105469.28125.171875.085938.070312.136719.195312.238282.273438.257812.195312 25.679687 20.164062 31.917968 41.464843 1.058594 3.640625 4.398438 6.144531 8.191406 6.144531.8125 0 1.617188-.121093 2.398438-.351562 2.171875-.636719 4.003906-2.109375 5.089844-4.09375 1.085937-1.988281 1.339844-4.324219.703125-6.496094-6.117188-16.519531-16.25-31.253906-29.484375-42.878906 22.546875-14.105469 55.28125-12.597656 73.609375 5 20.589843 19.726562 17.066406 54.441406 7.679687 78.171875-3.097656 7.242187-6.808594 14.203125-11.09375 20.8125-2.558594 4.15625-5.035156 8.320313-7.328125 12.640625-7.234375 12.875-11.929687 27.019531-13.832031 41.667969-1.25 14.195312-3.625 28.273437-7.101562 42.09375-2.671876 9.890625-6.039063 20.480469-11.648438 20.582031-2.804688-1.484375-11.5625-15.804688-18.210938-63.546875-3.164062-22.367187-15.203124-28.332031-24.746093-29.390625-.324219.011719-.648438.042969-.972657.085938-.328124-.042969-.65625-.074219-.988281-.085938-9.539062 1.058594-21.582031 7.023438-24.746093 29.40625-6.648438 47.726562-15.359376 62.046875-17.453126 63.386719-6.363281 0-9.734374-10.546875-12.421874-20.480469-3.46875-13.800781-5.835938-27.851562-7.082032-42.027344-1.902344-14.644531-6.59375-28.789062-13.824218-41.667968-2.304688-4.324219-4.824219-8.488282-7.339844-12.644532-4.28125-6.609375-7.992188-13.566406-11.09375-20.804687-9.214844-23.757813-12.773438-58.472657 7.824218-78.207031zm0 0"/><path d="m178.863281 227.988281c2.574219.003907 5.015625-1.15625 6.636719-3.15625 1.625-1.996093 2.257812-4.625 1.726562-7.144531-2.726562-12.074219 2.597657-24.535156 13.207032-30.914062 4.132812-2.269532 5.640625-7.457032 3.371094-11.589844-2.269532-4.128906-7.457032-5.640625-11.589844-3.371094-17.222656 9.984375-26 29.972656-21.691406 49.410156.835937 3.9375 4.3125 6.761719 8.339843 6.765625zm0 0"/><path d="m450.171875 22.042969c-10.632813-7.832031-25.507813-6.160157-34.132813 3.84375l-16.28125 18.539062c-47.089843-32.320312-103.734374-47.75-160.710937-43.773437-129.546875 9.71875-231.753906 114.089844-238.753906 243.8125-1.929688 39.933594 5.675781 79.753906 22.1875 116.164062 3.152343 6.992188 9.324219 12.160156 16.757812 14.03125 7.5625 1.957032 15.601563.359375 21.839844-4.34375 9.542969-7.097656 12.859375-19.878906 7.96875-30.722656-13.1875-29.316406-19.214844-61.347656-17.578125-93.457031 4.960938-102.695313 85.328125-185.777344 187.800781-194.15625 44.46875-3.816407 88.953125 7.1875 126.515625 31.289062l-9.480468 10.863281c-6.636719 7.550782-8.242188 18.285157-4.105469 27.445313s13.253906 15.050781 23.304687 15.0625h59.734375c14.136719 0 25.597657-11.464844 25.597657-25.601563v-67.082031c.15625-8.589843-3.808594-16.734375-10.664063-21.914062zm-6.402344 88.996093c0 4.710938-3.820312 8.53125-8.53125 8.53125h-59.734375c-3.351562-.007812-6.386718-1.976562-7.761718-5.03125-1.375-3.058593-.832032-6.636718 1.386718-9.148437l15.871094-18.175781c1.59375-1.820313 2.339844-4.226563 2.054688-6.625-.285157-2.402344-1.574219-4.566406-3.546876-5.960938-42.3125-30.023437-93.894531-44.078125-145.585937-39.671875-111.03125 9.089844-198.109375 99.105469-203.503906 210.378907-1.769531 34.773437 4.757812 69.46875 19.039062 101.222656 1.605469 3.582031.496094 7.800781-2.664062 10.128906-2.09375 1.578125-4.796875 2.117188-7.335938 1.460938-2.421875-.585938-4.4375-2.257813-5.453125-4.53125-15.382812-33.976563-22.464844-71.125-20.660156-108.375 6.523438-121.066407 101.902344-218.476563 222.804688-227.550782 5.40625-.34375 10.785156-.519531 16.144531-.519531 50.265625-.140625 99.253906 15.824219 139.785156 45.550781 3.570313 2.601563 8.53125 2.050782 11.441406-1.269531l21.402344-24.390625c2.871094-3.285156 7.789063-3.792969 11.273437-1.167969 2.386719 1.980469 3.710938 4.964844 3.574219 8.0625zm0 0"/><path d="m489.621094 151.582031c-3.152344-6.992187-9.324219-12.160156-16.761719-14.03125-9.492187-2.441406-19.546875.753907-25.890625 8.226563s-7.863281 17.910156-3.914062 26.878906c13.171874 29.304688 19.1875 61.320312 17.550781 93.40625-4.960938 102.699219-85.324219 185.785156-187.800781 194.167969-44.46875 3.832031-88.957032-7.171875-126.515626-31.289063l9.480469-10.863281c6.640625-7.550781 8.246094-18.285156 4.105469-27.445313-4.136719-9.160156-13.253906-15.050781-23.304688-15.0625h-59.734374c-14.136719 0-25.597657 11.464844-25.597657 25.601563v67.34375c-.140625 9.875 5.238281 19 13.941407 23.65625 10.425781 5.300781 23.113281 2.898437 30.875-5.84375l16.265624-18.542969c42.1875 29.007813 92.21875 44.46875 143.417969 44.320313 5.746094 0 11.515625-.1875 17.304688-.5625 129.542969-9.726563 231.734375-114.089844 238.738281-243.804688 1.929688-39.929687-5.667969-79.746093-22.160156-116.15625zm5.121094 115.394531c-6.53125 121.058594-101.902344 218.460938-222.796876 227.542969-55.675781 3.914063-110.933593-12.046875-155.949218-45.039062-3.566406-2.601563-8.53125-2.050781-11.441406 1.269531l-21.335938 24.378906c-2.527344 2.890625-6.703125 3.675782-10.109375 1.90625-3.035156-1.753906-4.863281-5.03125-4.761719-8.535156v-67.328125c0-4.710937 3.820313-8.53125 8.53125-8.53125h59.734375c3.351563.007813 6.386719 1.976563 7.761719 5.035156 1.375 3.054688.832031 6.632813-1.386719 9.144531l-15.871093 18.175782c-1.59375 1.820312-2.339844 4.226562-2.054688 6.625.285156 2.402344 1.574219 4.566406 3.546875 5.960937 42.316406 30.015625 93.894531 44.074219 145.585937 39.671875 111.015626-9.109375 198.066407-99.121094 203.460938-210.378906 1.769531-34.773438-4.753906-69.46875-19.039062-101.222656-1.601563-3.582032-.5-7.800782 2.65625-10.136719 2.097656-1.582031 4.804687-2.113281 7.347656-1.453125 2.417968.585938 4.433594 2.261719 5.453125 4.53125 15.378906 33.980469 22.460937 71.128906 20.65625 108.382812zm0 0"/></svg>