<svg fill="#F5F5F5" id="icons" enable-background="new 0 0 64 64" height="512" viewBox="0 0 64 64" width="512" xmlns="http://www.w3.org/2000/svg"><path d="m18.498 44.5c-4.963 0-9 4.037-9 9l.002 7c0 1.103.897 2 2 2h39.998c1.103 0 2-.897 2-2v-6.998c0-4.963-4.037-9-9-9l-5-.002v-4.158c.969-.562 1.883-1.228 2.728-1.994.416.09.839.152 1.274.152 3.309 0 6-2.691 6-6 0-1.777-.782-3.415-2.076-4.533.044-.487.074-.978.074-1.467v-11.998c0-4.072-3.061-7.436-7-7.931v-4.071c0-.553-.447-1-1-1h-10c-7.72 0-14 6.28-14 14v11c0 5.906 3.226 11.063 8 13.835v4.167zm25.121 2.002c.285.494.552 1.001.775 1.526.734 1.729 1.107 3.569 1.107 5.47 0 2.476-.654 4.883-1.884 7.002h-24.235c-1.23-2.123-1.886-4.53-1.886-7.002 0-1.891.37-3.725 1.101-5.451.224-.528.493-1.043.785-1.547l4.187.002c.497 3.937 3.859 6.994 7.93 6.994s7.436-3.058 7.932-6.996zm-12.121 4.994c-2.154 0-4.041-1.145-5.1-2.854 1.45.566 3.277.858 5.1.858s3.65-.292 5.102-.858c-1.059 1.71-2.947 2.854-5.102 2.854zm-14.453-4.842c-.098.204-.202.407-.29.614-.835 1.974-1.259 4.069-1.259 6.229 0 2.443.563 4.83 1.622 7.002h-5.618l-.002-7c0-3.36 2.383-6.174 5.547-6.845zm34.453 6.848v6.998h-5.616c1.058-2.17 1.62-4.557 1.62-7.002 0-2.171-.427-4.274-1.268-6.253-.085-.199-.186-.392-.278-.588 3.161.673 5.542 3.486 5.542 6.845zm-22-50.002h9v4.002c0 .553.447 1 1 1 3.309 0 6 2.691 6 6v3.584l-2.293-2.293c-.02-.02-.045-.025-.065-.043-.052-.045-.106-.078-.165-.11-.057-.031-.11-.061-.171-.08-.06-.02-.119-.027-.182-.035-.065-.009-.128-.016-.193-.011-.061.004-.118.019-.179.034-.066.018-.13.037-.192.068-.024.012-.05.012-.073.025-.048.029-4.851 2.858-10.486 2.858s-10.438-2.829-10.486-2.858c-.023-.014-.049-.014-.073-.025-.063-.031-.126-.051-.192-.068-.061-.016-.118-.03-.179-.034-.065-.005-.128.002-.193.011-.063.008-.122.016-.182.035-.061.02-.114.049-.171.08-.059.032-.113.065-.165.11-.021.018-.046.023-.065.043l-2.293 2.293v-2.586c-.002-6.617 5.381-12 11.998-12zm-12 23v-5.586l3.178-3.178c1.612.838 5.857 2.764 10.822 2.764s9.21-1.926 10.822-2.764l3.178 3.178v5.586c0 .115-.008.23-.011.346-.26-.092-.524-.172-.796-.227-.541-.112-1.069.241-1.178.783-.108.541.242 1.068.783 1.178.261.053.517.132.762.235 1.483.627 2.441 2.072 2.441 3.685 0 2.206-1.794 4-4 4-.874 0-1.704-.276-2.398-.799-.443-.333-1.069-.243-1.4.197-.332.441-.244 1.068.197 1.4.091.068.19.117.284.181-2.464 1.955-5.498 3.021-8.685 3.021-7.719 0-13.999-6.28-13.999-14zm14 16c2.087 0 4.117-.4 6-1.161v4.161.001c-.01.707-2.284 1.999-6 1.999-3.722 0-6-1.298-6-2.004v-4.174c1.856.754 3.878 1.178 6 1.178z"/><path d="m50.931 35.633c-.48-.279-1.091-.114-1.366.364-.277.479-.113 1.09.364 1.366l1.732 1.002c.158.092.33.135.5.135.346 0 .682-.179.866-.499.277-.479.113-1.09-.364-1.366z"/><path d="m54.502 32.498c0-.553-.447-1-1-1h-2.002c-.553 0-1 .447-1 1s.447 1 1 1h2.002c.553 0 1-.447 1-1z"/><path d="m51.663 26.632-1.734 1c-.479.275-.644.888-.367 1.365.185.321.521.501.867.501.169 0 .341-.043.498-.134l1.734-1c.479-.275.644-.888.367-1.365-.274-.478-.885-.645-1.365-.367z"/></svg>