<svg fill="#F5F5F5" id="icons" enable-background="new 0 0 64 64" height="512" viewBox="0 0 64 64" width="512" xmlns="http://www.w3.org/2000/svg"><path d="m29.994 61.999c.002 0 .004.001.006.001.552 0 1 .448 1 1 0 .553.447 1 1 1s1-.447 1-1c0-.552.449-1.001 1.001-1.001 12.131-.001 21.999-9.869 21.999-22v-32.999c0-.552-.447-1-1-1s-1 .448-1 1c0 1.654-1.346 3-3 3h-9c-4.963 0-9-4.038-9-9 0-.552-.447-1-1-1s-1 .448-1 1c0 4.962-4.037 9-9 9h-9c-1.654 0-3-1.346-3-3 0-.552-.447-1-1-1s-1 .448-1 1v32.999c0 12.129 9.866 21.997 21.994 22zm-19.994-51.024c.838.634 1.87 1.025 3 1.025h9c4.439 0 8.264-2.648 10-6.444 1.736 3.796 5.561 6.444 10 6.444h9c1.13 0 2.162-.391 3-1.025v29.024c0 11.028-8.972 20-20 20h-.001c-.77.001-1.468.302-1.999.781-.529-.478-1.223-.776-1.99-.779-.004 0-.006-.002-.01-.002-11.028 0-20-8.972-20-20z"/><path d="m30 57h4c9.374 0 17-7.627 17-17.001v-23.999c0-.552-.447-1-1-1h-8c-3.436 0-6.749-1.277-9.332-3.596-.379-.341-.957-.341-1.336 0-2.583 2.319-5.896 3.596-9.332 3.596h-8c-.553 0-1 .448-1 1v23.999c0 9.374 7.626 17.001 17 17.001zm-15-40h7c3.639 0 7.157-1.251 10-3.54 2.843 2.289 6.361 3.54 10 3.54h7v22.999c0 8.272-6.729 15.001-15 15.001h-4c-8.271 0-15-6.729-15-15.001z"/><path d="m23.998 35.718v9.277c0 .553.447 1 1 1h3c1.651 0 2.994-1.341 2.999-2.99 0-.004.002-.007.002-.01v-2c0-.552.448-1 1-1s1 .448 1 1v2c0 1.654 1.346 3 3 3h3c.553 0 1-.447 1-1v-9.274c1.859-1.302 3.001-3.437 3.001-5.725 0-3.86-3.141-7-7-7-1.437 0-2.829.444-4 1.263-1.171-.819-2.563-1.263-4-1.263-3.859 0-7 3.14-7 7 0 2.286 1.141 4.421 2.998 5.722zm4.002-10.722c1.228 0 2.411.455 3.332 1.281.381.342.955.342 1.336 0 .921-.826 2.104-1.281 3.332-1.281 2.757 0 5 2.243 5 5 0 1.777-.958 3.436-2.501 4.328-.031.018-.05.048-.078.068-.063.047-.123.095-.175.154-.036.043-.063.089-.092.138-.036.061-.068.12-.092.188-.021.061-.028.121-.037.186-.006.044-.026.083-.026.129v8.808h-2c-.552 0-1-.448-1-1v-2c0-1.654-1.346-3-3-3s-3 1.346-3 3v1.995c0 .002-.001.003-.001.005 0 .552-.448 1-1 1h-2v-8.808c0-.043-.02-.08-.024-.121-.009-.069-.018-.135-.04-.2-.021-.063-.052-.116-.084-.172-.031-.055-.063-.105-.104-.154-.047-.054-.101-.096-.157-.138-.032-.025-.054-.06-.09-.08-1.541-.892-2.499-2.55-2.499-4.326 0-2.757 2.243-5 5-5z"/></svg>