<svg fill="#F5F5F5" height="512pt" viewBox="-26 0 512 512.09154" width="512pt" xmlns="http://www.w3.org/2000/svg"><path d="m40.910156 266.03125c4.734375 7.835938 9.640625 15.925781 14 24.117188 12.925782 22.914062 21.351563 48.089843 24.824219 74.171874 2.625 29.667969 7.613281 59.078126 14.917969 87.953126 5.632812 20.90625 16.109375 59.816406 49.542968 59.816406 26.222657 0 46.492188-50.070313 60.246094-148.820313 4.683594-33.082031 19.113282-35.984375 26.113282-36.8125 6.996093.855469 21.425781 3.730469 26.101562 36.796875 13.765625 98.765625 34.039062 148.835938 60.253906 148.835938 33.425782 0 43.914063-38.910156 49.496094-59.730469 7.328125-28.898437 12.320312-58.335937 14.929688-88.03125 3.476562-26.078125 11.902343-51.253906 24.824218-74.171875 4.363282-8.175781 9.257813-16.265625 13.996094-24.089844 9.304688-14.449218 17.355469-29.671875 24.054688-45.5 22.5625-57.488281 28.722656-136.070312-21.554688-184.214844-49.324219-47.351562-137.191406-48.324218-192.128906-3.59375-54.894532-44.730468-142.753906-43.757812-192.074219 3.582032-50.273437 48.15625-44.121094 126.738281-21.582031 184.21875 6.695312 15.820312 14.738281 31.03125 24.039062 45.472656zm9.386719-217.375c44.117187-42.351562 127.289063-41.679688 174.503906 1.398438 3.296875 3.242187 54.539063 52.4375 99.59375 52.4375 4.714844 0 8.535157-3.820313 8.535157-8.535157 0-4.710937-3.820313-8.53125-8.535157-8.53125-29.960937 0-65.902343-28.332031-80.820312-41.320312 48.113281-37.015625 125.3125-35.726563 167.273437 4.558593 44.191406 42.324219 38.015625 113.332032 17.5 165.648438-6.34375 14.925781-13.960937 29.277344-22.765625 42.898438-4.855469 8.019531-9.875 16.304687-14.457031 24.898437-13.945312 24.8125-23.011719 52.0625-26.71875 80.28125-2.527344 28.820313-7.347656 57.390625-14.410156 85.445313-6.179688 22.835937-14.3125 47.1875-33.085938 47.1875-8.53125 0-28.558594-28.03125-43.347656-134.140626-4.464844-31.574218-18.59375-48.890624-41.984375-51.484374-.339844.003906-.679687.03125-1.015625.085937-.34375-.058594-.691406-.085937-1.042969-.085937-23.378906 2.5625-37.546875 19.917968-41.980469 51.5-13.707031 98.40625-33.433593 134.125-43.34375 134.125-18.773437 0-26.914062-24.351563-33.082031-47.257813-7.019531-28.023437-11.839843-56.554687-14.421875-85.332031-3.699218-28.222656-12.765625-55.472656-26.71875-80.28125-4.582031-8.601563-9.609375-16.90625-14.507812-24.925782-8.796875-13.609374-16.410156-27.953124-22.746094-42.871093-20.472656-52.371094-26.617188-123.367188 17.542969-165.699219zm0 0"/><path d="m49.210938 178.582031c2.664062.003907 5.175781-1.234375 6.792968-3.351562 1.617188-2.113281 2.152344-4.863281 1.449219-7.433594-19.054687-69.855469 25.457031-92.886719 27.496094-93.867187 4.101562-2.125 5.769531-7.128907 3.757812-11.289063s-6.96875-5.964844-11.179687-4.070313c-.597656.246094-59.480469 29.609376-36.542969 113.722657 1.011719 3.710937 4.382813 6.289062 8.226563 6.289062zm0 0"/><path d="m119.621094 51.292969c0 4.710937-3.820313 8.53125-8.535156 8.53125-4.710938 0-8.53125-3.820313-8.53125-8.53125 0-4.714844 3.820312-8.535157 8.53125-8.535157 4.714843 0 8.535156 3.820313 8.535156 8.535157zm0 0"/><path d="m146.621094 288.699219c6.386718 6.429687 15.074218 10.050781 24.136718 10.058593 9.066407.011719 17.757813-3.59375 24.160157-10.007812l35.609375-35.609375 35.558594 35.558594c6.386718 6.429687 15.074218 10.050781 24.140624 10.058593 9.0625.011719 17.757813-3.59375 24.160157-10.007812 13.3125-13.328125 13.3125-34.921875 0-48.25l-35.609375-35.609375 35.609375-35.609375c9.078125-8.519531 12.800781-21.3125 9.703125-33.375-3.09375-12.0625-12.515625-21.480469-24.578125-24.578125-12.0625-3.09375-24.851563.625-33.375 9.707031l-35.609375 35.609375-35.609375-35.609375c-13.4375-12.613281-34.460938-12.277344-47.492188.753906s-13.367187 34.054688-.753906 47.492188l35.609375 35.609375-35.609375 35.609375c-13.292969 13.308594-13.316406 34.863281-.050781 48.199219zm12.117187-36.132813 41.640625-41.640625c3.332032-3.332031 3.332032-8.734375 0-12.066406l-41.640625-41.644531c-6.199219-6.730469-5.980469-17.152344.488281-23.625 6.46875-6.46875 16.894532-6.6875 23.625-.488282l41.644532 41.640626c3.332031 3.332031 8.734375 3.332031 12.066406 0l41.640625-41.640626c6.734375-6.199218 17.15625-5.980468 23.625.488282 6.472656 6.472656 6.6875 16.894531.492187 23.625l-41.644531 41.644531c-3.332031 3.332031-3.332031 8.734375 0 12.066406l41.644531 41.640625c3.203126 3.210938 4.996094 7.5625 4.988282 12.09375-.011719 4.535156-1.824219 8.878906-5.039063 12.074219-6.742187 6.425781-17.351562 6.402344-24.066406-.050781l-41.640625-41.644532c-3.332031-3.332031-8.734375-3.332031-12.066406 0l-41.695313 41.695313c-6.742187 6.425781-17.347656 6.402344-24.0625-.050781-6.652343-6.664063-6.652343-17.453125 0-24.117188zm0 0"/></svg>