<svg fill="#F5F5F5" height="512pt" viewBox="0 -38 512.05399 512" width="512pt" xmlns="http://www.w3.org/2000/svg"><path d="m486.058594 230.179688c-6.109375-11.582032-9.941406-24.226563-11.289063-37.25-.609375-4.71875-.949219-9.4375-1.289062-14.148438-.417969-9.117188-1.621094-18.1875-3.601563-27.101562-3.703125-15.148438-10.175781-29.484376-19.089844-42.28125 22.515626-17.816407 42.558594-38.550782 59.597657-61.660157 2.785156-3.804687 1.960937-9.144531-1.84375-11.929687-3.804688-2.785156-9.144531-1.960938-11.929688 1.84375-16.273437 22.0625-35.433593 41.839844-56.96875 58.800781-10.195312-10.160156-23.367187-16.808594-37.597656-18.976563-35.925781-5.273437-74.316406 20.480469-85.957031 56.121094-24.234375.09375-47.292969 10.476563-63.429688 28.5625-.585937 0-1.160156 0-1.746094 0h-25.917968c.25-.402344.46875-.851562.710937-1.21875 4.957031-7.675781 9.238281-15.769531 12.796875-24.183594 12.1875-30.96875 15.363282-73.457031-12.183594-99.773437-26.25-25.105469-72.414062-26.453125-102.570312-4.1875-30.15625-22.25-76.324219-20.898437-102.5625 4.179687-27.5625 26.324219-24.363281 68.8125-12.167969 99.789063 3.554688 8.414063 7.839844 16.503906 12.796875 24.175781.242188.398438.460938.851563.710938 1.21875h-13.960938c-4.714844 0-8.535156 3.820313-8.535156 8.535156 0 4.710938 3.820312 8.53125 8.535156 8.53125h23.355469c4.847656 9.6875 8.046875 20.109376 9.472656 30.847657 1.375 15.546875 4.003907 30.957031 7.859375 46.082031 2.976563 11.058594 9.179688 34.003906 29.679688 34.003906 6.585937 0 24.078125 0 35.34375-80.519531 1.867187-13.21875 6.597656-15.003906 9.488281-15.453125 2.894531.449219 7.621094 2.234375 9.488281 15.433594 11.265625 80.539062 28.757813 80.539062 35.347656 80.539062 20.480469 0 26.699219-22.945312 29.660157-33.917968 3.867187-15.15625 6.5-30.597657 7.875-46.175782 1.425781-10.734375 4.628906-21.15625 9.472656-30.839844h25.378906c-2.773437 5.472657-4.785156 11.300782-5.972656 17.324219-7.195313 37.441407 20.0625 70.183594 47.972656 88.335938 7.785157 4.777343 15.96875 8.875 24.457031 12.246093 4.328126 1.859376 8.671876 3.726563 12.945313 5.84375 11.871094 5.519532 22.570313 13.269532 31.515625 22.828126 10.148438 11.867187 21.238281 22.894531 33.160156 32.980468 8.25 8.140625 18.9375 13.359375 30.429688 14.867188 4.84375-.003906 9.558594-1.546875 13.464844-4.414063 5.359374-3.832031 19.625-13.984375-17.921876-86.082031-6.140624-11.871094-3.328124-16.070312-1.234374-18.101562 2.617187-1.320313 7.5-2.558594 16.691406 7.066406 37.800781 39.917968 56.558594 48.214844 66.394531 48.214844 3.3125.03125 6.535156-1.078126 9.125-3.140626 16.691406-11.886718 8.421875-34.1875 4.46875-44.835937-5.683594-14.578125-12.515625-28.679687-20.425781-42.179687zm-296.875-22.035157c-1.300782 14.714844-3.769532 29.296875-7.390625 43.617188-2.800781 10.332031-6.359375 21.332031-12.570313 21.484375-2.953125-1.449219-12.117187-16.125-19.082031-65.96875-3.257813-22.949219-15.613281-29.058594-25.410156-30.140625-.328125.011719-.652344.046875-.972657.101562-.328124-.054687-.660156-.089843-.988281-.101562-9.796875 1.082031-22.1875 7.191406-25.414062 30.15625-6.964844 49.828125-16.128907 64.503906-18.441407 65.835937-6.824218 0-10.410156-11.035156-13.226562-21.4375-3.601562-14.289062-6.0625-28.839844-7.355469-43.519531-1.980469-15.125-6.847656-29.726563-14.335937-43.015625-2.390625-4.472656-5-8.773438-7.601563-13.066406-4.453125-6.839844-8.304687-14.054688-11.511719-21.5625-9.703124-24.636719-13.398437-60.679688 8.097657-81.195313 21.496093-20.511719 61.984375-20.148437 85.027343.855469.351563.25.726563.472656 1.117188.664062.453125.332032.9375.617188 1.449219.851563.507812.183594 1.035156.3125 1.570312.386719.523438.132812 1.0625.214844 1.605469.238281.539062-.023437 1.078125-.105469 1.601562-.238281.535157-.074219 1.0625-.203125 1.570313-.386719.511719-.230469 1-.519531 1.453125-.851563.390625-.1875.765625-.410156 1.117188-.664062 23.039062-20.960938 63.566406-21.335938 85.035156-.804688s17.792968 56.550782 8.097656 81.179688c-3.214844 7.507812-7.066406 14.722656-11.519531 21.570312-2.5625 4.265626-5.214844 8.59375-7.605469 13.066407-7.472656 13.269531-12.335938 27.847656-14.316406 42.945312zm303.460937 94.875c-3.234375.445313-19.207031-6.09375-53.820312-42.667969-15.972657-16.785156-29.574219-14.597656-38.1875-9.792968-.257813.191406-.503907.402344-.730469.628906-.296875.152344-.578125.320312-.855469.503906-7.347656 6.570313-13.859375 18.714844-3.183593 39.3125 23.246093 44.621094 24.289062 61.894532 23.1875 64.316406-5.589844 3.96875-14.882813-2.945312-23.210938-9.777343-11.230469-9.542969-21.683594-19.957031-31.265625-31.148438-10.386719-11.167969-22.820313-20.234375-36.625-26.707031-4.550781-2.261719-9.175781-4.269531-13.792969-6.238281-7.59375-2.988281-14.917968-6.625-21.886718-10.871094-22.1875-14.433594-46.078126-41.644531-40.507813-70.828125 5.574219-29.183594 38.871094-52.351562 69.710937-48.691406.414063 0 .828126-.035156 1.234376-.101563.59375.015625 1.1875-.03125 1.769531-.144531.472656-.140625.933593-.320312 1.371093-.546875 1.046876-.339844 1.972657-.980469 2.65625-1.84375.417969-.390625.796876-.828125 1.125-1.296875.277344-.492188.5-1.007812.675782-1.546875.199218-.378906.375-.777344.519531-1.183594 6.59375-30.429687 39.363281-54.28125 68.785156-49.996093 29.425781 4.28125 47.300781 35.71875 53.703125 61.4375 1.738282 7.972656 2.789063 16.082031 3.140625 24.234374.363281 5.019532.742188 10.035157 1.390625 15.070313 1.605469 15.164063 6.113282 29.875 13.277344 43.332031 7.453125 12.742188 13.898438 26.046875 19.285156 39.792969 3.703125 10 7.226563 21.050781 2.234375 24.753906zm0 0"/><path d="m65.601562 51.671875c-1.289062.410156-31.433593 10.929687-31.433593 50.753906 0 4.714844 3.820312 8.535157 8.53125 8.535157 4.714843 0 8.535156-3.820313 8.535156-8.535157 0-27.082031 18.875-34.25 19.839844-34.59375 4.359375-1.582031 6.660156-6.359375 5.171875-10.757812-1.488282-4.394531-6.214844-6.796875-10.644532-5.402344zm0 0"/><path d="m77.507812 324.34375c-13.804687 2.871094-28.144531-1.136719-38.460937-10.75-19.507813-20.855469-12.007813-64.144531-11.945313-64.582031.6875-4.5625-2.375-8.847657-6.914062-9.671875-4.542969-.824219-8.914062 2.113281-9.871094 6.625-.386718 2.109375-9.125 52.054687 16.210938 79.234375 11.066406 11.394531 26.503906 17.480469 42.371094 16.707031 3.503906-.007812 7.003906-.207031 10.484374-.597656 3.03125-.335938 5.652344-2.265625 6.875-5.058594 1.222657-2.792969.863282-6.023438-.941406-8.480469-1.808594-2.457031-4.789062-3.761719-7.816406-3.425781zm0 0"/><path d="m467.839844 332.972656c-4.617188.863282-7.667969 5.292969-6.828125 9.914063 2.191406 12.058593 4.328125 47.148437-11.902344 64.539062-8.578125 9.179688-21.191406 12.714844-38.496094 10.785157-4.683593-.519532-8.902343 2.859374-9.421875 7.542968-.515625 4.6875 2.859375 8.902344 7.546875 9.421875 3.480469.390625 6.980469.589844 10.484375.597657 15.867188.773437 31.296875-5.3125 42.359375-16.707032 25.34375-27.144531 16.609375-77.125 16.214844-79.234375-.390625-2.238281-1.667969-4.230469-3.539063-5.519531-1.875-1.289062-4.1875-1.773438-6.417968-1.339844zm0 0"/><path d="m253.335938.46875c-4.46875 1.492188-6.886719 6.316406-5.402344 10.789062l8.535156 25.597657c1.488281 4.476562 6.324219 6.902343 10.800781 5.410156 4.480469-1.488281 6.902344-6.324219 5.410157-10.800781l-8.53125-25.601563c-.71875-2.148437-2.257813-3.925781-4.289063-4.9375-2.027344-1.0117185-4.375-1.175781-6.523437-.457031zm0 0"/><path d="m320.503906 9.992188c-1.882812-1.253907-4.191406-1.710938-6.410156-1.269532-2.21875.445313-4.171875 1.75-5.425781 3.636719l-17.066407 25.597656c-2.617187 3.921875-1.558593 9.21875 2.363282 11.835938 3.917968 2.617187 9.21875 1.558593 11.835937-2.363281l17.066407-25.601563c1.253906-1.882813 1.710937-4.1875 1.269531-6.40625-.445313-2.21875-1.75-4.171875-3.632813-5.429687zm0 0"/><path d="m315.765625 76.828125c.703125-.003906 1.402344-.089844 2.082031-.257813l34.132813-8.53125c4.542969-1.171874 7.285156-5.789062 6.144531-10.335937-1.136719-4.550781-5.734375-7.328125-10.289062-6.21875l-34.136719 8.53125c-4.175781 1.046875-6.917969 5.042969-6.394531 9.320313.527343 4.273437 4.15625 7.484374 8.460937 7.492187zm0 0"/><path d="m200.097656 291.59375-25.601562 17.066406c-3.921875 2.617188-4.980469 7.914063-2.363282 11.835938 2.617188 3.921875 7.914063 4.980468 11.835938 2.363281l25.601562-17.066406c3.917969-2.617188 4.976563-7.914063 2.363282-11.835938-2.617188-3.921875-7.914063-4.980469-11.835938-2.363281zm0 0"/><path d="m241.039062 307.484375c-2.195312-.550781-4.519531-.207031-6.460937.960937-1.941406 1.164063-3.339844 3.054688-3.890625 5.25l-8.53125 34.132813c-1.140625 4.570313 1.636719 9.199219 6.203125 10.34375.679687.167969 1.375.253906 2.074219.253906 3.914062-.003906 7.320312-2.671875 8.269531-6.46875l8.53125-34.132812c1.140625-4.566407-1.632813-9.191407-6.195313-10.339844zm0 0"/><path d="m280.199219 311.023438c-2.617188-3.921876-7.914063-4.980469-11.835938-2.363282-3.921875 2.617188-4.980469 7.914063-2.363281 11.835938l17.066406 25.601562c1.691406 2.535156 4.609375 3.976563 7.652344 3.777344 3.042969-.195312 5.746094-2 7.097656-4.734375 1.351563-2.734375 1.140625-5.980469-.550781-8.515625zm0 0"/></svg>